<svg width="140" height="23" viewBox="0 0 140 23" fill="none" xmlns="http://www.w3.org/2000/svg">
<g id="66b30b130c2ae5361cd2bc94_Asset%201.svg" clip-path="url(#clip0_1_2338)">
<g id="Calque_1">
<g id="Group">
<path id="Vector" d="M29.0902 22.2611V6.15924C29.0902 3.3388 31.3766 1.05237 34.1971 1.05237H41.6528V1.84C41.6528 3.10429 40.6269 4.13026 39.3626 4.13026H34.2226C33.0883 4.13026 32.1694 5.04916 32.1694 6.18346V10.1089H39.3358V10.9118C39.3358 12.1761 38.3098 13.2021 37.0456 13.2021H32.1694V22.2599H29.0915L29.0902 22.2611Z" fill="#101A2D"/>
<path id="Vector_2" d="M49.1876 22.7021C47.6072 22.7021 46.2206 22.3554 45.0264 21.6634C43.8335 20.9713 42.9056 20.004 42.2429 18.7627C41.5802 17.5213 41.2488 16.0799 41.2488 14.4396C41.2488 12.7012 41.5751 11.1947 42.2276 9.91899C42.8802 8.64322 43.7914 7.65549 44.9601 6.95835C46.1288 6.2612 47.4887 5.91327 49.0398 5.91327C50.5908 5.91327 52.0386 6.28924 53.178 7.03992C54.3174 7.79059 55.1688 8.85861 55.7334 10.2427C56.298 11.6268 56.521 13.2722 56.4038 15.1762H53.3259V14.0573C53.3055 12.2118 52.955 10.8468 52.2731 9.96359C51.59 9.08037 50.5526 8.63813 49.1583 8.63813C47.6162 8.63813 46.4576 9.1237 45.6828 10.0961C44.9066 11.0686 44.5191 12.4718 44.5191 14.3083C44.5191 16.1449 44.9066 17.4079 45.6828 18.3663C46.4576 19.3234 47.5779 19.8026 49.041 19.8026C50.0033 19.8026 50.8355 19.5847 51.5378 19.1476C52.24 18.7104 52.7868 18.0846 53.1793 17.2702L56.1986 18.2274C55.5804 19.651 54.6424 20.7534 53.3858 21.5334C52.1291 22.3147 50.7297 22.7047 49.1889 22.7047L49.1876 22.7021ZM43.5174 15.1762V12.7751H54.8718V15.1762H43.5174Z" fill="#101A2D"/>
<path id="Vector_3" d="M66.3129 22.7021C64.7325 22.7021 63.3459 22.3554 62.1517 21.6634C60.9588 20.9713 60.031 20.004 59.3682 18.7627C58.7055 17.5213 58.3741 16.0799 58.3741 14.4396C58.3741 12.7012 58.7004 11.1947 59.3529 9.91899C60.0055 8.64322 60.9167 7.65549 62.0854 6.95835C63.2541 6.2612 64.614 5.91327 66.1651 5.91327C67.7161 5.91327 69.1639 6.28924 70.3033 7.03992C71.4427 7.79059 72.2941 8.85861 72.8587 10.2427C73.4233 11.6268 73.6463 13.2722 73.5291 15.1762H70.4512V14.0573C70.4308 12.2118 70.0803 10.8468 69.3984 9.96359C68.7153 9.08037 67.6779 8.63813 66.2836 8.63813C64.7415 8.63813 63.583 9.1237 62.8081 10.0961C62.0319 11.0686 61.6445 12.4718 61.6445 14.3083C61.6445 16.1449 62.0319 17.4079 62.8081 18.3663C63.583 19.3234 64.7032 19.8026 66.1663 19.8026C67.1286 19.8026 67.9608 19.5847 68.6631 19.1476C69.3653 18.7104 69.9121 18.0846 70.3046 17.2702L73.3239 18.2274C72.7057 19.651 71.7677 20.7534 70.5111 21.5334C69.2544 22.3147 67.855 22.7047 66.3142 22.7047L66.3129 22.7021ZM60.6427 15.1762V12.7751H71.9971V15.1762H60.6427Z" fill="#101A2D"/>
<path id="Vector_4" d="M82.5193 22.7021C81.0371 22.7021 79.7575 22.3338 78.6831 21.5971C77.6074 20.8605 76.7777 19.8574 76.194 18.5855C75.6103 17.3136 75.3172 15.8836 75.3172 14.293C75.3172 12.7025 75.6116 11.261 76.2004 9.99928C76.7892 8.73753 77.6265 7.74088 78.7111 7.00933C79.7957 6.27777 81.0842 5.91199 82.5767 5.91199C84.0691 5.91199 85.3423 6.27777 86.3695 7.00933C87.3955 7.74088 88.1717 8.74008 88.6967 10.0069C89.2218 11.2738 89.4844 12.7025 89.4844 14.293C89.4844 15.8836 89.2193 17.3123 88.6891 18.5791C88.1589 19.846 87.3789 20.8503 86.3479 21.5907C85.3168 22.3325 84.041 22.7021 82.5193 22.7021ZM82.9463 19.9186C83.9569 19.9186 84.7815 19.6777 85.42 19.1973C86.0586 18.7168 86.525 18.054 86.8194 17.2091C87.1138 16.3641 87.2617 15.3929 87.2617 14.293C87.2617 13.1931 87.1113 12.222 86.8118 11.377C86.5123 10.5333 86.0509 9.87438 85.4277 9.40409C84.8045 8.93253 84.0117 8.69675 83.0495 8.69675C82.0286 8.69675 81.1887 8.94655 80.5311 9.44742C79.8735 9.9483 79.3841 10.6212 79.0654 11.4649C78.7468 12.3099 78.5862 13.2518 78.5862 14.293C78.5862 15.3343 78.7455 16.294 79.0654 17.1428C79.3841 17.9916 79.8658 18.6671 80.5082 19.1679C81.1518 19.6688 81.9636 19.9186 82.9463 19.9186ZM87.2617 22.2611V10.8175H86.9086V1.05237H88.7681C89.4487 1.05237 90.0018 1.60422 90.0018 2.28607V22.2599H87.2629L87.2617 22.2611Z" fill="#101A2D"/>
<path id="Vector_5" d="M92.9319 22.2611V1.05237H94.7914C95.4719 1.05237 96.0251 1.60422 96.0251 2.28607V10.8175H95.672V22.2611H92.9331H92.9319ZM100.413 22.7021C98.8914 22.7021 97.6143 22.3312 96.5833 21.5907C95.5522 20.849 94.7722 19.846 94.242 18.5791C93.7119 17.3123 93.4468 15.8836 93.4468 14.293C93.4468 12.7025 93.7093 11.2738 94.2344 10.0069C94.7595 8.74008 95.5357 7.74088 96.5616 7.00933C97.5876 6.27777 98.8519 5.91199 100.354 5.91199C101.857 5.91199 103.135 6.27777 104.22 7.00933C105.305 7.74088 106.142 8.73753 106.731 9.99928C107.32 11.261 107.614 12.6923 107.614 14.293C107.614 15.8938 107.322 17.3148 106.737 18.5855C106.152 19.8574 105.324 20.8605 104.248 21.5971C103.172 22.3338 101.894 22.7021 100.412 22.7021H100.413ZM99.9862 19.9186C100.968 19.9186 101.781 19.6688 102.423 19.1679C103.065 18.6671 103.547 17.9929 103.866 17.1428C104.184 16.294 104.345 15.3432 104.345 14.293C104.345 13.2429 104.186 12.3099 103.866 11.4649C103.547 10.6212 103.058 9.9483 102.4 9.44742C101.742 8.94655 100.903 8.69675 99.8817 8.69675C98.9194 8.69675 98.1267 8.93253 97.5035 9.40409C96.8802 9.87565 96.4189 10.5333 96.1194 11.377C95.8199 12.222 95.6695 13.1931 95.6695 14.293C95.6695 15.3929 95.8173 16.3641 96.1117 17.2091C96.4061 18.054 96.8726 18.7168 97.5111 19.1973C98.1496 19.679 98.9742 19.9186 99.9849 19.9186H99.9862Z" fill="#101A2D"/>
<path id="Vector_6" d="M113.048 6.35547H109.971V22.2611H113.048V6.35547Z" fill="#101A2D"/>
<path id="Vector_7" d="M113.048 1.99674V3.74788H109.971V0.757935H111.811C112.495 0.757935 113.048 1.31234 113.048 1.99674Z" fill="#135AFF"/>
<path id="Vector_8" d="M116.288 22.2611V6.35546H119.027V10.2146L118.645 9.71374C118.841 9.20267 119.096 8.73493 119.411 8.3067C119.725 7.87975 120.089 7.52927 120.5 7.25398C120.903 6.95957 121.352 6.73144 121.847 6.56958C122.343 6.40772 122.852 6.30958 123.372 6.27517C123.892 6.24076 124.393 6.26752 124.874 6.35674V9.24345C124.354 9.10581 123.777 9.0663 123.144 9.1262C122.51 9.18483 121.929 9.3862 121.399 9.73031C120.898 10.054 120.503 10.4478 120.214 10.9092C119.924 11.3706 119.715 11.8842 119.588 12.4488C119.46 13.0134 119.397 13.6099 119.397 14.2382V22.2649H116.289L116.288 22.2611Z" fill="#101A2D"/>
<path id="Vector_9" d="M132.519 22.7021C131.037 22.7021 129.757 22.3338 128.683 21.5971C127.607 20.8605 126.777 19.8574 126.193 18.5855C125.608 17.3136 125.317 15.8836 125.317 14.293C125.317 12.7025 125.611 11.261 126.2 9.99928C126.789 8.73753 127.626 7.74088 128.711 7.00933C129.795 6.27777 131.084 5.91199 132.576 5.91199C134.069 5.91199 135.342 6.27777 136.369 7.00933C137.395 7.74088 138.171 8.74008 138.696 10.0069C139.221 11.2738 139.484 12.7025 139.484 14.293C139.484 15.8836 139.219 17.3123 138.689 18.5791C138.158 19.846 137.378 20.8503 136.347 21.5907C135.316 22.3325 134.041 22.7021 132.517 22.7021H132.519ZM132.946 19.9186C133.956 19.9186 134.782 19.6777 135.419 19.1973C136.058 18.7168 136.524 18.054 136.819 17.2091C137.113 16.3641 137.261 15.3929 137.261 14.293C137.261 13.1931 137.111 12.222 136.811 11.377C136.512 10.5333 136.05 9.87438 135.427 9.40409C134.804 8.93253 134.011 8.69675 133.049 8.69675C132.028 8.69675 131.188 8.94655 130.531 9.44742C129.873 9.9483 129.385 10.6212 129.065 11.4649C128.746 12.3099 128.586 13.2518 128.586 14.293C128.586 15.3343 128.745 16.294 129.065 17.1428C129.384 17.9916 129.865 18.6671 130.508 19.1679C131.151 19.6688 131.963 19.9186 132.944 19.9186H132.946ZM137.261 22.2611V10.8175H136.908V1.05237H140.001V22.2599H137.262L137.261 22.2611Z" fill="#101A2D"/>
<path id="Vector_10" d="M9.40445 2.52307H0C0.172056 4.33412 1.70017 5.75517 3.55582 5.75517H9.54464C13.3834 5.75517 16.5059 8.87767 16.5059 12.7164V18.7053C16.5059 20.5596 17.927 22.089 19.738 22.2611V12.8566C19.738 7.15839 15.1027 2.52307 9.40445 2.52307Z" fill="#135AFF"/>
<path id="Vector_11" d="M8.91631 8.35516H2.86377C3.03583 10.1662 4.56394 11.5873 6.41959 11.5873H9.05651C9.94992 11.5873 10.6764 12.3137 10.6764 13.2071V15.8415C10.6764 17.6959 12.0974 19.2253 13.9085 19.3973V13.3473C13.9085 10.5957 11.6692 8.35644 8.91759 8.35644L8.91631 8.35516Z" fill="#135AFF"/>
<path id="Vector_12" d="M15.8215 1.8451C17.6835 3.00106 19.2601 4.57633 20.416 6.43963C20.9233 5.85337 21.2088 5.09759 21.2088 4.31123V1.05237H17.9512C17.1597 1.05237 16.4116 1.33148 15.8215 1.84383V1.8451Z" fill="#135AFF"/>
</g>
</g>
</g>
<defs>
<clipPath id="clip0_1_2338">
<rect width="140" height="21.9441" fill="white" transform="translate(0 0.757935)"/>
</clipPath>
</defs>
</svg>
