<svg width="20" height="21" viewBox="0 0 20 21" fill="none" xmlns="http://www.w3.org/2000/svg">
<g id="66342f64b110f1dfa5b2a51b_Group%201597881110.svg">
<path id="Vector" d="M7.32563 3.05994C8.67391 1.78162 10.7867 1.78162 12.135 3.05994C12.6633 3.56086 13.3349 3.88429 14.056 3.98505C15.8961 4.24216 17.2133 5.89399 17.0545 7.74515C16.9923 8.47055 17.1582 9.19728 17.529 9.82385C18.4753 11.4228 18.0051 13.4826 16.4589 14.5126C15.8529 14.9163 15.3881 15.499 15.1294 16.1796C14.4693 17.9164 12.5658 18.833 10.7964 18.2663C10.103 18.0443 9.35759 18.0443 8.66423 18.2663C6.89483 18.833 4.99127 17.9164 4.33115 16.1796C4.07247 15.499 3.6077 14.9163 3.00177 14.5126C1.45548 13.4826 0.985341 11.4228 1.93158 9.82385C2.30238 9.19728 2.46826 8.47055 2.40604 7.74515C2.24725 5.89399 3.56455 4.24216 5.40462 3.98505C6.12568 3.88429 6.79728 3.56086 7.32563 3.05994Z" fill="#145AFF"/>
<path id="Vector_2" d="M6.66815 10.323L8.83402 12.4889L12.7922 8.5307" stroke="white" stroke-width="1.66667" stroke-miterlimit="10" stroke-linecap="round" stroke-linejoin="round"/>
</g>
</svg>
